<?xml version="1.0" standalone="no"?>
<!DOCTYPE svg PUBLIC "-//W3C//DTD SVG 20010904//EN"
 "http://www.w3.org/TR/2001/REC-SVG-20010904/DTD/svg10.dtd">
<svg version="1.0" xmlns="http://www.w3.org/2000/svg"
 width="260.000000pt" height="260.000000pt" viewBox="0 0 260.000000 260.000000"
 preserveAspectRatio="xMidYMid meet">
<metadata>
Created by potrace 1.11, written by Peter Selinger 2001-2013
</metadata>
<g transform="translate(0.000000,260.000000) scale(0.100000,-0.100000)"
fill="#000000" stroke="none">
<path d="M203 2590 c-82 -19 -133 -61 -175 -140 l-23 -45 0 -1100 c0 -1026 1
-1103 18 -1143 23 -57 66 -103 124 -133 l48 -24 1090 -2 c1040 -2 1092 -1
1142 16 64 23 112 66 144 128 l24 48 0 1105 0 1105 -24 47 c-29 57 -61 88
-121 120 l-45 23 -1085 2 c-597 0 -1099 -2 -1117 -7z"/>
</g>
</svg>
